<?xml version="1.0" standalone="no"?>
<!DOCTYPE svg PUBLIC "-//W3C//DTD SVG 20010904//EN"
 "http://www.w3.org/TR/2001/REC-SVG-20010904/DTD/svg10.dtd">
<svg version="1.0" xmlns="http://www.w3.org/2000/svg"
 width="250.000000pt" height="250.000000pt" viewBox="0 0 250.000000 250.000000"
 preserveAspectRatio="xMidYMid meet">
<metadata>
Created by potrace 1.14, written by Peter Selinger 2001-2017
</metadata>
<g transform="translate(0.000000,250.000000) scale(0.100000,-0.100000)"
fill="#000000" stroke="none">
<path d="M1103 2489 c-473 -55 -883 -388 -1033 -837 -50 -153 -63 -233 -63
-402 0 -109 5 -179 17 -235 110 -511 473 -878 976 -987 134 -30 366 -30 500 0
108 23 218 61 305 104 61 30 200 121 244 158 l23 20 -36 40 c-93 104 -172 359
-192 630 -4 49 -10 90 -13 90 -3 0 -42 -13 -85 -29 l-80 -28 -26 -84 c-119
-377 -404 -648 -700 -666 -256 -16 -385 212 -260 457 29 56 118 150 181 191
27 17 49 34 49 38 0 4 -35 15 -77 25 -43 10 -125 35 -183 55 l-105 37 -55 -33
c-117 -71 -241 -91 -320 -50 -57 29 -82 64 -87 124 -6 63 20 110 78 143 61 34
136 33 256 -4 92 -29 93 -29 114 -10 69 62 151 194 339 549 144 271 196 356
265 432 115 129 311 162 412 70 92 -85 67 -255 -56 -370 -54 -51 -127 -90
-199 -105 -55 -13 -92 12 -92 63 0 38 14 52 61 61 115 22 209 118 209 213 0
48 -18 61 -80 61 -56 0 -108 -29 -167 -93 -60 -66 -93 -121 -258 -432 -143
-268 -218 -396 -277 -470 l-40 -50 102 -33 c172 -55 232 -65 395 -66 168 -1
213 8 348 72 l79 37 -4 145 c-4 132 -7 150 -32 207 -15 34 -39 72 -52 84 -30
28 -31 72 -4 99 32 32 63 25 109 -25 80 -86 114 -214 109 -403 -2 -67 -2 -122
-1 -122 2 0 31 11 66 25 l64 26 6 172 c14 355 76 701 149 827 l20 34 -28 22
c-47 38 -174 107 -259 141 -195 78 -404 106 -612 82z"/>
<path d="M2080 2114 c-29 -67 -66 -226 -85 -364 -15 -117 -37 -431 -30 -438 4
-4 20 21 58 89 16 29 21 31 53 26 20 -3 42 -11 50 -18 38 -31 -10 -134 -100
-217 l-56 -51 0 -61 c0 -248 86 -577 173 -658 l24 -23 53 66 c328 412 368 980
100 1424 -52 87 -128 187 -184 240 l-35 34 -21 -49z"/>
<path d="M215 1130 c-10 -17 15 -40 42 -40 34 0 113 21 113 30 0 20 -143 29
-155 10z"/>
<path d="M1335 939 c-278 -59 -359 -91 -464 -185 -166 -149 -137 -364 49 -364
153 1 346 127 467 305 59 87 145 269 132 278 -2 2 -85 -14 -184 -34z"/>
</g>
</svg>
