<?xml version="1.0" encoding="UTF-8"?>
<svg id="Gruppe_2_Kopie" data-name="Gruppe 2 Kopie" xmlns="http://www.w3.org/2000/svg" viewBox="0 0 385 73">
  <g id="Rechteck_1_Kopie" data-name="Rechteck 1 Kopie">
    <rect x="108.99" y="37.99" width="130.02" height="35.01" style="fill: #950000;"/>
    <rect x="108.99" y="37.99" width="130.02" height="35.01" style="fill: none; stroke: #000; stroke-miterlimit: 100;"/>
  </g>
  <g id="Rechteck_1" data-name="Rechteck 1">
    <rect x="108.99" width="83.02" height="35.01" style="fill: #950000;"/>
    <rect x="108.99" width="83.02" height="35.01" style="fill: none; stroke: #000; stroke-miterlimit: 100;"/>
  </g>
  <g id="HALLER">
    <path d="M132.59,53.62h-9.8v-9.38h-4.59v22.81h4.59v-9.7h9.8v9.7h4.59v-22.81h-4.59v9.38ZM148.85,44.21l-8.23,22.84h4.82l1.51-4.35h9.12l1.51,4.35h4.85l-8.23-22.84h-5.34ZM148.2,59.05l3.31-9.54,3.31,9.54h-6.62ZM170.43,44.24h-4.59v22.81h12.13v-3.63h-7.54v-19.18ZM185.81,44.24h-4.59v22.81h12.13v-3.63h-7.54v-19.18ZM196.6,67.05h13.28v-3.73h-8.69v-6.05h7.71v-3.63h-7.71v-5.72h8.69v-3.73h-13.28v22.84ZM226.01,57.8c1.73-.46,3.03-1.29,3.9-2.5.87-1.21,1.31-2.57,1.31-4.07,0-1.31-.31-2.49-.93-3.55-.62-1.06-1.56-1.9-2.8-2.52-1.25-.62-2.75-.93-4.53-.93h-8.59v22.81h4.59v-8.89h2.16l5.05,8.89h5.31l-5.48-9.25ZM222.79,54.73h-3.84v-6.7h3.84c1.25,0,2.17.29,2.79.87.61.58.92,1.39.92,2.43s-.31,1.9-.92,2.5c-.61.6-1.54.9-2.79.9Z" style="fill: #fff;"/>
  </g>
  <g id="LISA">
    <path d="M122.78,6.01h-4.59v22.81h12.13v-3.63h-7.54V6.01ZM133.57,28.81h4.59V6.01h-4.59v22.81ZM155.57,16.82c-.94-.44-2.15-.87-3.64-1.31-1.09-.33-1.94-.62-2.54-.87-.6-.25-1.1-.58-1.51-.98-.4-.4-.61-.91-.61-1.52,0-.87.27-1.54.8-1.99.54-.46,1.25-.69,2.15-.69,1.03,0,1.85.26,2.48.77.62.51.96,1.16,1,1.94h5.05c-.15-2.05-.97-3.64-2.44-4.79-1.48-1.14-3.39-1.72-5.75-1.72-1.57,0-2.97.27-4.2.8-1.22.53-2.18,1.3-2.85,2.3-.68,1-1.02,2.18-1.02,3.53,0,1.44.33,2.59,1,3.45.67.86,1.46,1.5,2.39,1.93.93.42,2.14.86,3.62,1.29,1.09.31,1.95.58,2.57.83.62.25,1.14.59,1.56,1.03.42.44.62.99.62,1.67,0,.83-.31,1.5-.92,2.01-.61.51-1.45.77-2.52.77s-1.87-.27-2.48-.82c-.6-.54-.93-1.29-1-2.22h-4.92c.02,1.39.4,2.6,1.15,3.63.74,1.02,1.75,1.81,3.03,2.35,1.28.54,2.72.82,4.31.82,1.68,0,3.14-.31,4.36-.93,1.22-.62,2.15-1.45,2.79-2.5.63-1.05.95-2.18.95-3.4,0-1.42-.34-2.56-1.02-3.43-.68-.87-1.49-1.52-2.43-1.96ZM175.48,5.97h-5.34l-8.23,22.84h4.82l1.51-4.35h9.12l1.51,4.35h4.85l-8.23-22.84ZM169.48,20.81l3.31-9.54,3.31,9.54h-6.62Z" style="fill: #fff;"/>
  </g>
  <g id="Yashodhara">
    <path d="M205.74,17.57l-5.64-11.53h-3.31l7.48,14.18v8.59h2.98v-8.59l7.44-14.18h-3.31l-5.64,11.53ZM230.3,14.17c-.57-1.02-1.43-1.87-2.59-2.55-1.16-.67-2.52-1.01-4.1-1.01s-3.04.38-4.34,1.14c-1.3.76-2.32,1.84-3.07,3.22-.74,1.38-1.11,2.99-1.11,4.82s.37,3.42,1.11,4.84c.74,1.42,1.76,2.52,3.05,3.3,1.29.78,2.73,1.18,4.33,1.18s2.91-.34,4.08-1.03c1.17-.69,2.05-1.55,2.64-2.6v3.33h3.02V10.91h-3.02v3.27ZM229.48,23.37c-.55,1.01-1.28,1.79-2.21,2.32-.93.53-1.95.8-3.07.8s-2.13-.27-3.05-.8c-.92-.53-1.65-1.31-2.2-2.32-.55-1.01-.82-2.21-.82-3.58s.27-2.53.82-3.53c.55-1,1.28-1.76,2.2-2.29s1.93-.78,3.05-.78,2.14.27,3.07.8c.93.53,1.67,1.3,2.21,2.3.55,1,.82,2.18.82,3.53s-.27,2.53-.82,3.55ZM246.66,19.78c-.81-.34-1.86-.68-3.15-1.03-1.03-.28-1.83-.54-2.41-.77-.58-.23-1.06-.53-1.44-.91-.38-.38-.57-.87-.57-1.45,0-.74.32-1.34.95-1.8.63-.46,1.49-.69,2.56-.69,1.16,0,2.08.28,2.77.85.69.57,1.07,1.32,1.13,2.25h2.98c-.09-1.74-.74-3.11-1.97-4.12-1.22-1-2.83-1.5-4.82-1.5-1.29,0-2.44.22-3.44.67-1.01.45-1.78,1.05-2.33,1.81-.55.76-.82,1.6-.82,2.52,0,1.15.3,2.09.9,2.79.6.71,1.32,1.24,2.16,1.6.84.36,1.93.71,3.26,1.06,1.46.37,2.55.75,3.25,1.13.7.38,1.05.96,1.05,1.75s-.33,1.39-.98,1.9c-.66.5-1.55.75-2.69.75-1.22,0-2.21-.28-2.97-.85-.75-.57-1.18-1.3-1.26-2.19h-3.08c.07,1.09.42,2.05,1.05,2.89.63.84,1.5,1.49,2.59,1.96,1.09.47,2.33.7,3.71.7,1.29,0,2.43-.22,3.43-.67.99-.45,1.77-1.06,2.31-1.85.55-.78.82-1.67.82-2.65-.02-1.09-.32-1.97-.9-2.65-.58-.67-1.27-1.18-2.08-1.52ZM264.79,11.45c-1.09-.58-2.32-.87-3.67-.87s-2.45.25-3.49.75c-1.04.5-1.85,1.21-2.44,2.12V4.63h-2.98v24.18h2.98v-9.9c0-1.87.46-3.3,1.39-4.28.93-.98,2.18-1.47,3.75-1.47s2.78.47,3.67,1.42c.9.95,1.34,2.31,1.34,4.1v10.13h2.95v-10.55c0-1.66-.31-3.06-.93-4.22-.62-1.15-1.48-2.02-2.57-2.6ZM284.14,11.74c-1.38-.75-2.92-1.13-4.62-1.13s-3.25.38-4.62,1.13c-1.38.75-2.46,1.83-3.26,3.23-.8,1.41-1.2,3.02-1.2,4.85s.39,3.48,1.16,4.89c.78,1.41,1.85,2.49,3.21,3.25,1.37.76,2.89,1.14,4.57,1.14s3.26-.38,4.66-1.14c1.4-.76,2.51-1.85,3.33-3.25s1.23-3.03,1.23-4.89-.4-3.47-1.2-4.87c-.8-1.39-1.89-2.47-3.26-3.22ZM284.68,23.49c-.58,1-1.34,1.75-2.28,2.25-.94.5-1.95.75-3.02.75s-2.06-.25-2.95-.74c-.9-.49-1.61-1.24-2.15-2.24-.54-1-.8-2.23-.8-3.69s.27-2.66.82-3.66c.55-1,1.27-1.75,2.18-2.24.91-.49,1.91-.74,3-.74s2.07.25,2.98.74c.92.49,1.66,1.24,2.23,2.24.57,1,.85,2.22.85,3.66s-.29,2.66-.87,3.66ZM304.99,14.11c-.63-1.05-1.55-1.89-2.75-2.53-1.2-.64-2.5-.96-3.9-.96-1.62,0-3.08.38-4.38,1.14-1.3.76-2.32,1.84-3.07,3.22-.74,1.38-1.11,2.99-1.11,4.82s.37,3.42,1.11,4.84c.74,1.42,1.77,2.52,3.07,3.3,1.3.78,2.75,1.18,4.34,1.18s2.91-.34,4.07-1.03c1.16-.69,2.03-1.56,2.62-2.63v3.37h3.02V4.63h-3.02v9.48ZM304.18,23.37c-.55,1.01-1.28,1.79-2.21,2.32-.93.53-1.95.8-3.07.8s-2.13-.27-3.05-.8c-.92-.53-1.65-1.31-2.2-2.32-.55-1.01-.82-2.21-.82-3.58s.27-2.53.82-3.53c.55-1,1.28-1.76,2.2-2.29s1.93-.78,3.05-.78,2.14.27,3.07.8c.93.53,1.67,1.3,2.21,2.3.55,1,.82,2.18.82,3.53s-.27,2.53-.82,3.55ZM324.01,11.45c-1.09-.58-2.32-.87-3.67-.87s-2.45.25-3.49.75c-1.04.5-1.85,1.21-2.44,2.12V4.63h-2.98v24.18h2.98v-9.9c0-1.87.46-3.3,1.39-4.28.93-.98,2.18-1.47,3.75-1.47s2.78.47,3.67,1.42c.9.95,1.34,2.31,1.34,4.1v10.13h2.95v-10.55c0-1.66-.31-3.06-.93-4.22-.62-1.15-1.48-2.02-2.57-2.6ZM344.87,14.17c-.57-1.02-1.43-1.87-2.59-2.55-1.16-.67-2.52-1.01-4.1-1.01s-3.04.38-4.34,1.14c-1.3.76-2.32,1.84-3.07,3.22-.74,1.38-1.11,2.99-1.11,4.82s.37,3.42,1.11,4.84c.74,1.42,1.76,2.52,3.05,3.3,1.29.78,2.73,1.18,4.33,1.18s2.91-.34,4.08-1.03c1.17-.69,2.05-1.55,2.64-2.6v3.33h3.02V10.91h-3.02v3.27ZM344.05,23.37c-.55,1.01-1.28,1.79-2.21,2.32-.93.53-1.95.8-3.07.8s-2.13-.27-3.05-.8c-.92-.53-1.65-1.31-2.2-2.32-.55-1.01-.82-2.21-.82-3.58s.27-2.53.82-3.53c.55-1,1.28-1.76,2.2-2.29.92-.52,1.93-.78,3.05-.78s2.14.27,3.07.8c.93.53,1.67,1.3,2.21,2.3.55,1,.82,2.18.82,3.53s-.27,2.53-.82,3.55ZM354.28,13.82v-2.91h-2.98v17.91h2.98v-9.74c0-3.62,1.67-5.42,5.02-5.42h.79v-3.07c-1.4,0-2.59.28-3.56.85-.97.57-1.72,1.36-2.25,2.39ZM375.99,10.91v3.27c-.57-1.02-1.43-1.87-2.59-2.55-1.16-.67-2.52-1.01-4.1-1.01s-3.04.38-4.34,1.14c-1.3.76-2.32,1.84-3.07,3.22-.74,1.38-1.11,2.99-1.11,4.82s.37,3.42,1.11,4.84c.74,1.42,1.76,2.52,3.05,3.3,1.29.78,2.73,1.18,4.33,1.18s2.91-.34,4.08-1.03c1.17-.69,2.05-1.55,2.64-2.6v3.33h3.02V10.91h-3.02ZM375.17,23.37c-.55,1.01-1.28,1.79-2.21,2.32-.93.53-1.95.8-3.07.8s-2.13-.27-3.05-.8c-.92-.53-1.65-1.31-2.2-2.32-.55-1.01-.82-2.21-.82-3.58s.27-2.53.82-3.53c.55-1,1.28-1.76,2.2-2.29.92-.52,1.93-.78,3.05-.78s2.14.27,3.07.8c.93.53,1.67,1.3,2.21,2.3.55,1,.82,2.18.82,3.53s-.27,2.53-.82,3.55Z" style="fill: #950000;"/>
  </g>
  <g id="Dr.">
    <path d="M81.67,7.08c-1.83-.93-3.98-1.39-6.48-1.39h-7.12v22.78h7.12c2.49,0,4.65-.45,6.48-1.36,1.83-.9,3.22-2.21,4.2-3.92.97-1.71,1.46-3.73,1.46-6.06s-.49-4.36-1.46-6.08c-.97-1.72-2.37-3.04-4.2-3.97ZM81.95,23.68c-1.55,1.56-3.8,2.34-6.75,2.34h-4.13V8.11h4.13c2.93,0,5.18.8,6.74,2.39,1.56,1.59,2.34,3.8,2.34,6.63s-.78,4.99-2.33,6.55ZM97.59,10.23c-1.4,0-2.59.28-3.56.85-.97.57-1.72,1.36-2.25,2.39v-2.91h-2.98v17.91h2.98v-9.74c0-3.62,1.67-5.42,5.02-5.42h.79v-3.07ZM100.92,25.2c-.38-.39-.85-.59-1.39-.59s-1.05.2-1.44.59c-.39.39-.59.87-.59,1.44s.2,1.05.59,1.44c.39.39.87.59,1.44.59s1.01-.2,1.39-.59c.38-.39.57-.87.57-1.44s-.19-1.05-.57-1.44Z" style="fill: #950000;"/>
  </g>
  <g id="Prof.">
    <path d="M9.46,5.69H2.08v22.78h2.98v-9.51h4.39c2.67,0,4.65-.63,5.95-1.88,1.3-1.25,1.95-2.83,1.95-4.72s-.67-3.56-2.02-4.8c-1.34-1.24-3.31-1.86-5.89-1.86ZM13.13,15.43c-.79.72-2.01,1.08-3.67,1.08h-4.39v-8.37h4.39c3.23,0,4.85,1.41,4.85,4.22,0,1.33-.39,2.35-1.18,3.07ZM27.4,10.23c-1.4,0-2.59.28-3.56.85-.97.57-1.72,1.36-2.25,2.39v-2.91h-2.98v17.91h2.98v-9.74c0-3.62,1.67-5.42,5.02-5.42h.79v-3.07ZM40.97,11.39c-1.38-.75-2.92-1.13-4.62-1.13s-3.25.38-4.62,1.13c-1.38.75-2.46,1.83-3.26,3.23-.8,1.41-1.2,3.02-1.2,4.85s.39,3.48,1.16,4.89c.78,1.41,1.85,2.49,3.21,3.25,1.37.76,2.89,1.14,4.57,1.14s3.26-.38,4.66-1.14c1.4-.76,2.51-1.85,3.33-3.25.82-1.41,1.23-3.03,1.23-4.89s-.4-3.47-1.2-4.87c-.8-1.39-1.89-2.47-3.26-3.22ZM41.51,23.14c-.58,1-1.34,1.75-2.28,2.25-.94.5-1.95.75-3.02.75s-2.06-.25-2.95-.74c-.9-.49-1.61-1.24-2.15-2.24-.54-1-.8-2.23-.8-3.69s.27-2.66.82-3.66c.55-1,1.27-1.75,2.18-2.24.91-.49,1.91-.74,3-.74s2.07.25,2.98.74c.92.49,1.66,1.24,2.23,2.24.57,1,.85,2.22.85,3.66s-.29,2.66-.87,3.66ZM54.22,10.56h-3.77v-1.27c0-1.18.27-2.02.8-2.53.54-.51,1.46-.77,2.77-.77v-2.48c-2.3,0-3.96.46-5,1.39-1.04.93-1.56,2.39-1.56,4.39v1.27h-2.33v2.45h2.33v15.46h2.98v-15.46h3.77v-2.45ZM57.58,25.2c-.38-.39-.85-.59-1.39-.59s-1.05.2-1.44.59c-.39.39-.59.87-.59,1.44s.2,1.05.59,1.44c.39.39.87.59,1.44.59s1.01-.2,1.39-.59c.38-.39.57-.87.57-1.44s-.19-1.05-.57-1.44Z" style="fill: #950000;"/>
  </g>
</svg>